<?xml version="1.0" encoding="UTF-8"?>
<svg width="98px" height="92px" viewBox="0 0 98 92" version="1.1" xmlns="http://www.w3.org/2000/svg" xmlns:xlink="http://www.w3.org/1999/xlink">
    <!-- Generator: Sketch 45.1 (43504) - http://www.bohemiancoding.com/sketch -->
    <title>noun_850682_cc</title>
    <desc>Created with Sketch.</desc>
    <defs></defs>
    <g id="Adonis---Branding" stroke="none" stroke-width="1" fill="none" fill-rule="evenodd">
        <g id="Adonis---Docs" transform="translate(-258.000000, -827.000000)" fill-rule="nonzero" fill="#faab35">
            <g id="noun_850682_cc" transform="translate(258.000000, 827.000000)">
                <path d="M19.74,27.18 C21.3108111,12.9890387 32.7630804,1.92747409 47,0.85 C55.1633223,0.245821048 63.2057657,3.09350625 69.17,8.7 C75.6129222,14.7141032 79.0247138,23.296983 78.4690261,32.0931126 C77.9133384,40.8892421 73.4485504,48.9745261 66.3,54.13 L66.3,58.91 C66.3,60.2907119 65.1807119,61.41 63.8,61.41 C62.4192881,61.41 61.3,60.2907119 61.3,58.91 L61.3,53.78 C61.3119731,52.3558719 62.0125003,51.0256155 63.18,50.21 C69.1919302,45.9640229 72.9723136,39.2366045 73.4727156,31.8934973 C73.9731175,24.55039 71.1403352,17.3723121 65.76,12.35 C60.7994481,7.68059021 54.102963,5.31413586 47.31,5.83 C37.0002223,6.56192145 28.2632314,13.695103 25.4834017,23.6499898 C22.7035719,33.6048766 26.4809573,44.2326067 34.92,50.2 C36.0953706,51.0155345 36.8033439,52.3495053 36.82,53.78 L36.82,58.9 C36.82,60.2807119 35.7007119,61.4 34.32,61.4 C32.9392881,61.4 31.82,60.2807119 31.82,58.9 L31.82,54.13 C23.2792623,47.940593 18.6773858,37.6739892 19.74,27.18 Z M34.32,66.09 L63.77,66.09 C65.1507119,66.09 66.27,67.2092881 66.27,68.59 L66.27,75.16 C66.2341637,79.2104846 63.7583774,82.8392686 60,84.35 L60,85.35 C59.9944951,88.5896285 57.3696285,91.2144951 54.13,91.22 L44,91.22 C40.7603715,91.2144951 38.1355049,88.5896285 38.13,85.35 L38.13,84.35 C34.3637716,82.8455655 31.8791424,79.2153998 31.84,75.16 L31.84,68.59 C31.8399561,67.217061 32.947105,66.1009835 34.32,66.09 Z M36.82,75.16 C36.823373,77.5855313 38.6007937,79.6435974 41,80 C42.2232605,80.1830579 43.1287787,81.2331189 43.13,82.47 L43.13,85.38 C43.13,85.8604877 43.5195123,86.25 44,86.25 L54.1,86.25 C54.5804877,86.25 54.97,85.8604877 54.97,85.38 L54.97,82.45 C54.9818138,81.2174469 55.8902287,80.1774392 57.11,80 C59.4937936,79.6358508 61.2582828,77.5914185 61.27,75.18 L61.27,71.09 L36.82,71.09 L36.82,75.16 Z M11,32.78 C12.3807119,32.78 13.5,31.6607119 13.5,30.28 C13.5,28.8992881 12.3807119,27.78 11,27.78 L3,27.78 C2.106836,27.78 1.28151841,28.2564973 0.834936403,29.03 C0.388354392,29.8035027 0.388354392,30.7564973 0.834936403,31.53 C1.28151841,32.3035027 2.106836,32.78 3,32.78 L11,32.78 Z M8.17,10.68 L15.64,15.58 C16.7922359,16.28953 18.2998625,15.9534897 19.0416987,14.8217834 C19.7835349,13.690077 19.4902713,12.1735489 18.38,11.4 L10.91,6.5 C10.1633264,5.97977709 9.19294576,5.90638013 8.37651816,6.30837432 C7.56009056,6.7103685 7.02658957,7.52424957 6.98364714,8.43326514 C6.94070472,9.3422807 7.39510459,10.2028308 8.17,10.68 L8.17,10.68 Z M9.54,54.47 C10.0269321,54.4702284 10.5032455,54.3276821 10.91,54.06 L18.38,49.16 C19.2110865,48.710405 19.7176783,47.8306541 19.6893483,46.8861766 C19.6610184,45.941699 19.1026079,45.0938933 18.2460683,44.6949192 C17.3895286,44.2959452 16.381231,44.4139821 15.64,45 L8.17,49.9 C7.24652,50.5061485 6.8303188,51.6465207 7.14625371,52.705018 C7.46218862,53.7635152 8.4353595,54.4891947 9.54,54.49 L9.54,54.47 Z M84.54,30.28 C84.54,31.6607119 85.6592881,32.78 87.04,32.78 L95.04,32.78 C96.4207119,32.78 97.54,31.6607119 97.54,30.28 C97.54,28.8992881 96.4207119,27.78 95.04,27.78 L87,27.78 C85.6192881,27.78 84.5,28.8992881 84.5,30.28 L84.54,30.28 Z M81,16 C81.4869321,16.0002284 81.9632455,15.8576821 82.37,15.59 L89.84,10.69 C90.9502713,9.91645107 91.2435349,8.399923 90.5016987,7.26821663 C89.7598625,6.13651026 88.2522359,5.80047005 87.1,6.51 L79.63,11.41 C78.70652,12.0161485 78.2903188,13.1565207 78.6062537,14.215018 C78.9221886,15.2735152 79.8953595,15.9991947 81,16 L81,16 Z M87.1,54.07 C88.2522359,54.77953 89.7598625,54.4434897 90.5016987,53.3117834 C91.2435349,52.180077 90.9502713,50.6635489 89.84,49.89 L82.36,45 C81.2077641,44.29047 79.7001375,44.6265103 78.9583013,45.7582166 C78.2164651,46.889923 78.5097287,48.4064511 79.62,49.18 L87.1,54.07 Z M49.1,17.4 C48.4781162,17.1671231 47.7891326,17.1912329 47.1850483,17.4670106 C46.580964,17.7427882 46.1114186,18.247572 45.88,18.87 L41.42,30.87 C41.1353991,31.6366977 41.2437896,32.4941226 41.7102311,33.1658781 C42.1766726,33.8376336 42.9421849,34.2387781 43.76,34.24 L50.76,34.24 L47.55,42.86 C47.2391789,43.6977878 47.3989229,44.6377567 47.9690579,45.3258296 C48.5391929,46.0139024 49.4331018,46.3455445 50.3140579,46.1958296 C51.195014,46.0461146 51.9291789,45.4377878 52.24,44.6 L56.7,32.6 C56.9846009,31.8333023 56.8762104,30.9758774 56.4097689,30.3041219 C55.9433274,29.6323664 55.1778151,29.2312219 54.36,29.23 L47.36,29.23 L50.57,20.61 C51.0484007,19.3177311 50.3909243,17.8820172 49.1,17.4 L49.1,17.4 Z" id="Shape"></path>
            </g>
        </g>
    </g>
</svg>